<?xml version="1.0" encoding="UTF-8"?>
<svg version="1.1" viewBox="0 0 2048 2048" width="600" height="600" xmlns="http://www.w3.org/2000/svg">
<path transform="translate(974)" d="m0 0h105l52 5 42 5 43 7 43 9 36 9 37 11 36 12 25 9 32 13 27 12 28 13 42 22 24 14 17 10 23 15 21 14 17 12 15 11 16 12 16 13 11 9 28 24 31 29 30 30 7 8 15 16 7 8 11 13 9 11 13 16 27 36 16 23 15 23 13 21 14 24 10 18 13 25 8 16 13 27 14 33 12 31 13 37 11 36 9 33 8 35 8 41 8 55 3 23v192l-8 60-7 41-8 37-10 40-12 40-14 41-15 38-12 28-16 34-18 35-13 23-17 28-15 24-16 23-10 14-14 19-14 18-14 17-11 13-12 14-28 30-36 36-8 7-15 14-11 9-15 13-16 13-17 13-16 12-20 14-33 22-21 13-24 14-29 16-32 16-25 12-33 14-31 12-34 12-39 12-42 11-41 9-40 7-64 9h-192l-66-9-39-7-37-8-39-10-40-12-46-16-37-15-27-12-25-12-16-8-27-14-24-14-22-13-25-16-16-11-17-12-19-14-18-14-22-18-14-12-15-13-16-15-8-8-8-7-19-19v-2h-2l-7-8-9-9-7-8-10-11-9-11-8-9-9-11-11-14-14-18-10-14-12-17-16-24-12-19-12-20-12-21-13-24-20-40-12-27-14-34-11-30-12-36-9-30-13-52-9-45-7-47-5-45-3-36v-105l7-72 7-48 9-46 10-42 8-28 9-29 13-38 13-33 13-30 13-28 14-28 12-22 16-28 15-24 11-17 13-19 10-14 14-19 10-13 13-16 8-10 13-15 7-8 9-10 11-12 16-17 20-20h2l1-3 8-7 17-16 8-7 14-12 11-9 16-13 13-10 19-14 18-13 27-18 19-12 15-9 17-10 29-16 44-22 36-16 33-13 36-13 38-12 41-11 39-9 38-7 40-6 45-5z" fill="#FCFDFD"/>
<path transform="translate(1023,255)" d="m0 0 4 1 25 14 17 10 130 75 19 11 24 14 28 16 24 14 21 12 3 1 8-16 7-11 12-12 14-8 8-2h21l13 4 11 6 11 10 7 11 4 9 2 16v15l-2 17-5 16-3 6 1 3 14 8 7-1 41-13 66-22 42-12 4-1 2 5v3l9-1 7-8 1-7-2-1-26-1-16-5-14-7-10-8-10-10-9-14-5-11-3-11v-38l5-15 7-13 8-10 12-12 13-8 16-6 10-2h27l16 4 12 5 12 8 12 11 10 15 6 13 3 12 1 7v22l-4 17-5 12-9 13-9 10-12 9-16 8-11 3 5 13-1 2-6-4h-6l-4 6-5 5 1 7 3 4-2 5-4 3-6 3-1 3-1 46-7 8-10 7-14 8-13 10 4 4 25 14 48 28 52 30 2 2v159h-28l-1-141-13-8-28-16-52-30-24-14-3-1-2 6-8 15-11 23-13 28-11 27-10 28-12 36-4 16 1 7 5 5 11 6 3 5 1 4 1 17v38l-2 28 1 1h277l31 1v402l-272 1h-201l-1072-1v-402l26-1h907l6-8-47-1-12-36-13-41v-2l-5 5-13 17-12 15-12 16-12 15-7 9-2 2h-135v-49h-73l-2 5-13 23-11 19-2 2h-149l1-7 19-72 14-50 5-15v-5l-8 16-9 17-8 16-13 22-34 58-12 20h-69l-6-92-1-21v-36h-2l-3 18-7 30-18 65-10 35-1 1h-77l3-10 17-51 14-41 13-38 40-120 4-10 4-1h72l2 3 5 101 2 45 1 44 8-16 14-26 16-26 14-23 15-24 32-52 14-23 2-2 76-1 1 2-10 53-21 107-15 77v4l16-27 19-32 27-45 19-32 17-28 17-29 17-28 12-20 1-1 80-1 1 1 3 41 9 143 3 47v7h3l2-4 12-14 14-17 11-13 9-11 12-14 8-10 11-13 9-11 6-7-1-7-16-41-11-28-16-41-2-7 83-1 3 8 17 57 3 9 5-5 11-13 33-42 10-13h60l-8-16-3-9v-8l5-5 10-5 50-20 24-9 1-1-20-4-10-6-8-9-7-14-4-16v-18l1-8-16-9-24-14-21-12-78-45-24-14-21-12-52-30-19-11-21-12-6-1-28 16-19 11-26 15-24 14-28 16-26 15-24 14-28 16-24 14-28 16-24 14-26 15-28 16-24 14-52 30-21 12-26 15-24 14-28 16-24 14-26 15-28 16-24 14-22 13h-2v142h-29v-160l22-12 17-10 24-14 28-16 26-15 24-14 26-15 28-16 26-15 24-14 28-16 24-14 104-60 24-14 28-16 24-14 28-16 24-14 104-60 24-14z" fill="#060607"/>
<path transform="translate(359,1293)" d="m0 0h29v96l4 4 28 16 24 14 156 90 43 25-2-8-2-22v-6l7-6 36-21h6l22 15 15 11 12 6 42 12 55 15 11-1 25-5 44-6 40-4 25-2 27-1h44l45 3 37 4 47 8 13 3h16l43-12 45-12 12-4 11-7 17-13 13-9 5-1 23 12 21 12 4 4-3 34-1 5 11-6 26-15 21-12 26-15 24-14 28-16 24-14 26-15 21-12 24-14 21-12 8-5h2l1-99h29l-1 117-17 10-28 16-26 15-21 12-26 15-24 14-52 30-28 16-26 15-36 21-1 4 2 56v15l-1 29-2 25-4 25-5 18-7 15 5 1 25 2 29 4 12 2 1 4-5 2-21 3-33 3-86 4-65 2-49 1-171 2-5 2-5-2-35-1-106-1-110-2-47-1-62-3-54-5-16-4v-4l23-4 24-3 15-1-7-26-6-36-3-44v-25l3-49 1-11-24-14-28-16-24-14-28-16-24-14-78-45-24-14-28-16-22-13z" fill="#070607"/>
<path transform="translate(1011,918)" d="m0 0h138l16 2 15 4 5 2 1 2v51h67l6 9 9 19 6 20 3-17 6-36 2-6 6-3 14 1 17 2h34l26-4 19-1h35l8-4 13-11 8-7 11-11h1l-1 12-7 45-1 3-101 1-8 50-1 4h96l-1 12-9 57-1 3-92 1h-4l-8 49-2 7h101l1 3-10 64-2 5-2 1h-182l-3-1 2-13 14-89 2-11-12 21-13 18-12 13-13 13-17 13-18 11-16 8-17 7-22 6-19 3-18 1h-120l-2-1 1-9 15-97 12-75 17-108 6-37z" fill="#FBFCFD"/>
<path transform="translate(747,906)" d="m0 0h149l16 2 15 3 18 6 17 8 11 7 9 7 3 3-1 9-10 64-14 87-16 103-4 25-4 5-16 9-16 8-22 8-19 5-20 3-22 1h-103l-3-1 2-31 13-216 4-37 12-77z" fill="#FBFCFD"/>
<path transform="translate(367,906)" d="m0 0h152l15 2 10 2 14 5 7 4v14l-1 11-2 40-2 32-3 49-4 4-8 5v1l9 1 2 4-3 53-2 34-4 66-2 15-5 4-17 7-23 6-22 3-33 1h-127l-8-1 1-10 12-76 10-62 10-64 11-70 12-77z" fill="#FCFDFD"/>
<path transform="translate(1588,462)" d="m0 0h5v13l-3 9-15 7-12 5-14 9-13 11-8 8-11 14-12 17-14 24-8 15-14 31-13 34-16 49-15 55-6 26-5 29-3 33h2l5-16 11-42 4-12 2-1 16 3 7 1 1 4-8 44-3 24-3 44-5 5-19 10-20 8-11 3-10-5-10-7-8-1-22 3-52 11-87 20h-7l-2-11-2-23v-15l4-7 9-10 13-18 10-16h2v40l3-3 2-11 1-13 1-3 6 2 5 2 7-1 6-4 5-6 4-10 4-26 4-40 3-28 11-66 11-58 3-16-1-8-3-2-15-2-6-9-5-13 1-3 63-25 36-13 43-15 89-29 33-10 28-9z" fill="#0292F1"/>
<path transform="translate(1514,917)" d="m0 0h78l39 1 16 2 15 4 17 8 11 8 10 10 8 14 4 10 2 10 1 11v10l-3 22-5 16-8 17-9 13-11 12-11 10-18 10-18 6-5 1 7 12 48 79 17 28 7 11 2 4-1 1h-105l-10-19-18-37-13-28-16-33-3-9h-2l-3 22-13 83-3 19-1 1-11 1h-69l-6-2 8-49 10-65 13-82 15-94 6-37z" fill="#FBFCFD"/>
<path transform="translate(962,1341)" d="m0 0h132l50 2 35 5 12 3 16 8 11 9 7 7 12 16 10 14 26 39 7-1 10-2 2-1v-7l-2-11v-7l3-3h62l2 2-2 9-5 12-6 5-11 4-51 10h-2l2 6-5 5-14 12-11 9-26 22-9 7v-3l15-16 9-10 12-13 11-12 8-7-2-6-8-13-12-20-8-11-6-8 6 11 10 18 8 17 3 10v5h-25l-39-2-21-3-44-13-15-3-42-2-27-1h-60l-51 1-25 2-24 7-21 7-18 4-19 2-30 1h-26l1-9 9-21 10-19 7-11-5 5-21 33-10 16 1 4 15 15 7 8 9 9 7 8 7 7 7 8 7 7 2 4-4-2-11-9-28-24-11-9-13-11-4-3 1-7-63-14-5-5-7-18v-6l1-1h63l1 9-2 14v5l16 4 5-1 13-21 13-18 12-17 13-16 11-11 9-6 16-5 28-4 49-3z" fill="#070607"/>
<path transform="translate(660,912)" d="m0 0 37 1 2 1-1 28-1 11 16 1 7 1 1 1-2 32-1 6-23-1-2 31-1 7 16 1 7 1 1 4-2 35-24-1-2 39 20 1 3 1v13l-2 25-4 1-20-2-1 26-1 13 17 1 6 1v18l-1 20-4 1-20-1-1-1 1-23 1-15-33-2-5-1-1 27-1 11 33 3 5 1v13l-2 25-47-1-22-1v-1h29v-12l2-25-37-2-2-1 2-38 1-1h16l23 1v-17l1-21-36-2-2-1 1-22 2-17 18 1 20 1 2-38-36-2-1-1v-30l1-8 1-1h21l17 1 1-31 1-6-27-2-10-1-1-1v-14l2-23 1-1 38 1v-12l2-25z" fill="#F4F9FD"/>
<path transform="translate(1601,268)" d="m0 0h20l12 2 9 4 14 8 14 12 9 10 4 6 6 15 3 13v30l-4 11-9 1 7 1-1 7-6 9-11 12-6 5-5 5-10 7-8 4-6 2-12 3h-26l-21-8-15-9-7-6-11-14-5-7-5-10-3-15-1-8v-19l3-15 5-11 6-10 10-12h2l1-3 16-11 11-5 10-3z" fill="#8F0C0B"/>
<path transform="translate(829,986)" d="m0 0h35l18 3 12 4 15 8 12 11 8 11 6 13 3 11 2 15v10l-3 25-6 20-8 16-10 14-14 14-14 10-16 8-15 5-16 3-8 1h-34l12-75 10-63 8-51z" fill="#070607"/>
<path transform="translate(1085,990)" d="m0 0h26l18 2 16 5 13 7 12 11 7 11 5 11 3 12 1 19-2 20-4 15-5 13-8 14-13 15-14 11-12 7-16 6-11 3-19 2h-26l2-16 12-75 12-76z" fill="#070607"/>
<path transform="translate(974)" d="m0 0h105l52 5 42 5 43 7 43 9 36 9 37 11 36 12 25 9 32 13 27 12 28 13 42 22 24 14 17 10 23 15 21 14 17 12 15 11 16 12 16 13 11 9 28 24 31 29 30 30 7 8 15 16 7 8 11 13 9 11 13 16 27 36 16 23 15 23 13 21 14 24 10 18 13 25 8 16 13 27 14 33 12 31 13 37 11 36 9 33 8 35 8 41 8 55 3 23v52h-1l-5-56-4-38-6-39-6-31-7-30-10-40-5-16-14-43-13-35-14-34-12-27-16-33-15-28-14-24-15-25-22-33-11-16-14-19-10-13-11-14-13-16-12-14-9-10-7-8-9-10-8-8-7-8-22-22-2-1v-2l-4-2-13-13-8-7-15-13-11-10-14-11-16-13-20-15-18-13-20-14-23-15-23-14-24-14-26-14-25-13-28-13-25-11-38-15-28-10-37-12-16-4-13-4-17-4-15-4-34-7-22-4-39-6-34-4-57-4h-84l-38 2-34 3-35 4-35 6-33 6-50 12-35 10-43 14-42 16-30 13-24 11-27 13-19 10-25 14-30 18-22 14-22 15-17 12-16 12-13 10-16 13-11 9-14 12-10 9-8 7-16 15-13 12-19 19-7 8-16 17-12 14-10 11-11 14-10 12-10 13-14 19-13 18-20 30-12 19-16 27-15 27-17 33-13 28-9 21-16 40-7 18-12 36-7 25-5 17-8 32-8 38-6 37-5 34-4 46-2 36v83l2 35 4 43 7 48 7 38 10 43 14 49 15 46 8 21 8 20 11 26 13 28 13 27 12 22 15 27 13 21 10 16 23 34 11 15 12 16 10 13 13 16 9 11 12 14 10 11 7 8 11 12 15 15v2l3 1v2l4 2 22 22 8 7 13 12 11 9 10 9 10 8v2l4 1 16 13 12 9 18 13 14 10 24 16 17 11 17 10v2l5 1 19 11 22 12 9 5 15 8 36 16 5 3 13 5 22 9 11 5 20 7 45 15 17 5 18 5 32 8 22 5 35 7 49 7 27 3 46 4 6 1v1h-47l-66-9-39-7-37-8-39-10-40-12-46-16-37-15-27-12-25-12-16-8-27-14-24-14-22-13-25-16-16-11-17-12-19-14-18-14-22-18-14-12-15-13-16-15-8-8-8-7-19-19v-2h-2l-7-8-9-9-7-8-10-11-9-11-8-9-9-11-11-14-14-18-10-14-12-17-16-24-12-19-12-20-12-21-13-24-20-40-12-27-14-34-11-30-12-36-9-30-13-52-9-45-7-47-5-45-3-36v-105l7-72 7-48 9-46 10-42 8-28 9-29 13-38 13-33 13-30 13-28 14-28 12-22 16-28 15-24 11-17 13-19 10-14 14-19 10-13 13-16 8-10 13-15 7-8 9-10 11-12 16-17 20-20h2l1-3 8-7 17-16 8-7 14-12 11-9 16-13 13-10 19-14 18-13 27-18 19-12 15-9 17-10 29-16 44-22 36-16 33-13 36-13 38-12 41-11 39-9 38-7 40-6 45-5z" fill="#06131D"/>
<path transform="translate(1561,470)" d="m0 0 3 1-8 4-25 11-44 18-36 15-39 16-20 8-29 12-34 14-14 6v3l25-5 7-1 1 1-1 8-17 54-3 13-3-1-4-18-2-5h-3l-1 15-13 78-9 58-6 40-2 13v5l5-5 12-18 3-1-1 6-5 11-15 44-4 8-9 6-20 11-5 3-3-1 4-7 8-11 1-3-11 7-17 11-10 7-8 6-1 37-2 2-5 1h-7l-2-11-2-23v-15l4-7 9-10 13-18 10-16h2v40l3-3 2-11 1-13 1-3 6 2 5 2 7-1 6-4 5-6 4-10 4-26 4-40 3-28 11-66 11-58 3-16-1-8-3-2-15-2-6-9-5-13 1-3 63-25 36-13 43-15 89-29 33-10z" fill="#8FB7FE"/>
<path transform="translate(1288,609)" d="m0 0h2l-1 10-8 44-8 52-11 89-5 29-3 9-5 6-4-1-5-14v-15l-2-4-6 1-4 4-8 13-2 4-4-2-12-31-12-30-13-33 1-4 10-11 9-11 11-12 9-11 9-10 9-11 12-13 9-11 9-10 9-11 10-11z" fill="#F9FCFD"/>
<path transform="translate(1e3 1518)" d="m0 0h49l40 3 33 4 36 5 30 5-1 3-31 10-26 8-24 6-10 1h-29l-29-3h-39l-34 3-6 1h-19l-16-3-66-19-13-4-3-3 22-3 37-6 35-4 41-3z" fill="#F8FBFD"/>
<path transform="translate(1368,385)" d="m0 0h12l14 4 10 6 10 9 7 14 2 10v22l-3 15-4 11-6 10-7 7-10 7-16 7-13 3h-20l-10-4-8-7-4-7-4-10-1-4v-22l6-18 8-14 9-11 12-9 7-5-8 1-7 1 3-5 10-7z" fill="#0292F1"/>
<path transform="translate(660,912)" d="m0 0 37 1 2 1-1 28-1 11 16 1 7 1 1 1-2 32-1 6-23-1-2 31-1 7 16 1 7 1 1 4-2 35-43-2-20-2 1-40 1-31 1-6-27-2-10-1-1-1v-14l2-23 1-1 38 1v-12l2-25z" fill="#F6FAFD"/>
<path transform="translate(428,1118)" d="m0 0h34l20 2 10 3 10 6 6 10 1 4v17l-4 11-6 8-8 7-11 5-12 3-17 2h-35l2-16 9-59z" fill="#070607"/>
<path transform="translate(2047,1073)" d="m0 0h1v48l-8 60-7 41-8 37-10 40-12 40-14 41-15 38-12 28-16 34-18 35-13 23-17 28-15 24-16 23-10 14-14 19-14 18-14 17-11 13-12 14-28 30-36 36-8 7-15 14-11 9-15 13-16 13-17 13-16 12-20 14-33 22-21 13-24 14-29 16-32 16-25 12-33 14-31 12-34 12-39 12-42 11-41 9-40 7-64 9h-48v-1l72-7 49-7 47-9 42-10 48-14 42-14 36-14 28-12 26-12 31-15 22-12 25-14 23-14 23-15 27-18 18-13 17-13 14-11 11-9 13-11 14-12 13-12 10-9 9-9 8-7 22-22 7-8 7-7 7-8 9-10 9-11 9-10 9-11 14-18 16-21 13-19 12-17 11-17 13-21 10-17 13-23 11-20 8-17 8-16 15-33 11-27 10-26 11-33 8-25 7-25 6-24 5-22 5-24 5-28 5-32 5-43 3-36z" fill="#061019"/>
<path transform="translate(971,1476)" d="m0 0h95l39 2 5 3 1 2v12l-3 16-5 1-21-6-15-2-17-1h-44l-35 1-16 3-17 5h-5l-3-13-2-10v-6l6-5z" fill="#070607"/>
<path transform="translate(1563,983)" d="m0 0h13l14 1 15 4 10 6 5 6 4 11v10l-4 16-6 9-7 7-16 8-12 3-10 1h-20l2-16 9-57z" fill="#070607"/>
<path transform="translate(711,1540)" d="m0 0 30 5 45 8 72 12v3l-15 10-17 11-2 1-12-1-66-13-44-9-9-3 4-8 10-14z" fill="#F7FAFD"/>
<path transform="translate(614,1027)" d="m0 0h21l15 1 3 1-1 31-1 8 20 1 17 1 2 1-2 39 20 1 3 1v13l-2 25-4 1-20-2v-11l2-27-31-2h-8v-21l1-19-36-2-1-1v-30l1-8z" fill="#F7FAFD"/>
<path transform="translate(1329,1540)" d="m0 0 7 4 7 10 4 7v3l-12 3-56 11-58 12-6-2-19-12-13-8v-3l64-11 78-13z" fill="#F7FAFD"/>
<path transform="translate(660,912)" d="m0 0 37 1 2 1-1 28-1 11 16 1 7 1 1 1-2 32-1 6-23-1-31-2-8-1v-18l1-21-3-1h3v-12l2-25z" fill="#F5FAFD"/>
<path transform="translate(1339,1586)" d="m0 0h9l4 3 1 8-2 8-2-2-3-8-2-1h-14l-33 6-38 8-41 9-34 9-38 11h-8l-16-5-13-2h-170l-18 1-13 4-5 2h-8l-64-16-42-10-44-9-39-8h-10l-5 9-2-3-1-9 4-4h10l47 9 63 13 67 12 31 4 12 1h187l40-4 39-6 99-20z" fill="#E7F3FD"/>
<path transform="translate(451,978)" d="m0 0h23l18 4 6 4 6 7 3 9v8l-3 13-6 10-7 6-12 6-16 3h-24l11-69z" fill="#070607"/>
<path transform="translate(643,1574)" d="m0 0 4 1 12 112 3 14 4 6 9 8 12 6 26 8 22 4 84 7 69 6 17 1 43 1 1 2h-91l-105-4-62-3-9-2-14-7-8-7-4-8-3-42-8-76-2-17z" fill="#E9F4FD"/>
<path transform="translate(604,1184)" d="m0 0h16l22 1 1 1v27l-1 11 33 3 5 1v13l-2 25-47-1-22-1v-1h29v-12l2-25-37-2-2-1 2-38z" fill="#F7FAFD"/>
<path transform="translate(1396,1578)" d="m0 0h2l-4 38-9 83-4 22-6 12-8 7-10 3-10 1-103 4-72 2h-72v-2l46-1 140-12 38-5 19-5 19-9 12-9 4-6 3-15 6-48 6-55z" fill="#E9F4FD"/>
<path transform="translate(1579,322)" d="m0 0h14l7 4 3 5v4l58-1-5 6-3 1-4-2-4 8-1 7 4 4 1 5-7 5h-7l1-11h-2l-2 6-3 5-2 1h-37l-5-5-3-5v-2h-2l2 10-1 1-8-1-7-6 5-6 2-1-1-6-4-9-8 1-2-5h-6v-1h10l8 1 1-6z" fill="#871111"/>
<path transform="translate(1338,1602)" d="m0 0h1l-1 9-7 23-9 25-7 18 1 3 5 1-1 5-8 8-16 6-30 8-24 5-13 2h-18l-9-4-27-18-11-7 2-2 30-1 17 9 11 3h21l23-5 31-9 10-6 5-6 5-11 9-26 9-29z" fill="#F3F9FD"/>
<path transform="translate(705,1614)" d="m0 0 3 4 15 42 6 12 5 5 12 6 20 6 26 5 14 2h12l10-3 16-9 4-1h27v3l-11 8-27 18-9 3h-16l-57-12-20-6-10-6-5-7v-3l6-2-3-11-10-26-8-24z" fill="#F3F9FD"/>
<path transform="translate(1661,334)" d="m0 0 6 1 8 8 1 3v9l-4 5-1 2-1 9h-2l1 4-1 5h-11l-6-8v-4l6-1 5 10 2 1 1-11-3-3-9 2-10 5-17 2v2l-8 1h17l9 3-2 2-4 1h-21l-41-1-1-3 6-2 15-1-25-5-10-5-6-1-5 2 2 5 2 7 5-10 4-1 2 1-1 6-4 6h-10l-4-14-3-9-3-4 2-9 3-6 5-3h8l2 4h5 4l5 12-1 4-6 5 4 5 5 2h5l-1-10h2l6 10 2 1h39l2-5 3-6h2v5l2 1h-2l-1 5 9-2 4-3-1-5-1-3-3-1 1-7 5-9 5 2z" fill="#E1EFF9"/>
<path transform="translate(1368,385)" d="m0 0h7l1 3-6 11-13 20-11 18-9 14-5 8v14l2 9 1 13 3-2 11-23 7-16 4-6 1 2-12 42v5l10 8 2 5h-17l-10-4-8-7-4-7-4-10-1-4v-22l6-18 8-14 9-11 12-9 7-5-8 1-7 1 3-5 10-7z" fill="#8FB6FE"/>
<path transform="translate(924,668)" d="m0 0h2l-1 28-1 57-1 8-10 1h-30l-6-1 2-5 14-26 10-18 11-23 8-19z" fill="#F0F8FD"/>
<path transform="translate(1339,1586)" d="m0 0h9l4 3 1 8-2 8-2-2-3-8-2-1h-14l-33 6-38 8-41 9-34 9-38 11h-8l-16-5-13-2-25-1 1-2 36-2 36-4 31-5 99-20z" fill="#E8F3FD"/>
<path transform="translate(1596,266)" d="m0 0h27l16 4 12 5 12 8 12 11 10 15 6 13 3 12 1 7v22l-4 17-5 12-9 13-9 10-12 9-16 8-11 3 5 13-1 2-6-4h-6l-3 2 2-5v-5l-2-1-26-1-16-5-14-7-10-8-10-10-9-14-5-11-3-11v-38l5-15 7-13 8-10 12-12 13-8 16-6zm5 2-15 2-16 7-17 12v2l-3 1-9 11-7 11-5 13-2 12v19l2 15 3 9 6 12 10 13 4 5 10 8 12 7 21 8h26l12-3 12-5 11-7 5-4 15-15 6-8 4-7v-5l-7-1 9-1 4-11v-30l-3-13-7-17-11-13-12-11-15-9-9-4-7-2-7-1z" fill="#070607"/>
<path transform="translate(641,1225)" d="m0 0h11l23 2 5 1v13l-2 25-47-1-22-1v-1h29v-12l2-25z" fill="#F4F9FD"/>
<path transform="translate(567,1142)" d="m0 0h20l18 2 1 1v12l-2 27-24-1-16-2 1-22 1-16z" fill="#F6FAFD"/>
<path transform="translate(572,1064)" d="m0 0 25 1 12 1 1 1v21l-1 15-2 2h-19l-18-1-1-1v-14l2-24z" fill="#F5FAFD"/>
<path transform="translate(581,907)" d="m0 0 23 1 15 1v30l-1 9-39-1-1-1 1-22z" fill="#F6FAFD"/>
<path transform="translate(562,1221)" d="m0 0 38 1 1 1v15l-1 20-1 4-17-1-22-2v-20l1-16z" fill="#F5FAFD"/>
<path transform="translate(576,986)" d="m0 0h13l24 1 2 1-2 39-17-1-22-2-1-2 2-32z" fill="#F5FAFD"/>
<path transform="translate(653,1029)" d="m0 0 34 2 5 1-1 19-1 20-31-2-8-1 1-28z" fill="#070607"/>
<path transform="translate(658,951)" d="m0 0 36 2 3 2-2 33-1 4-30-1-8-1v-18l1-16z" fill="#070607"/>
<path transform="translate(649,1108)" d="m0 0 20 1 15 1 3 1-1 27-1 11-38-2v-26l1-12z" fill="#070607"/>
<path transform="translate(1586,318)" d="m0 0h45l7 1 11 9 3 3 6-2 4-5 7-1 5 5v3l-10 2-6 2h-55l-3-8-7-4h-14l-7 6-2 6h-8l-6-2-12-1-1-5 6-4 6 1 3 5 5 2h3l7-8 7-4z" fill="#F1F8FD"/>
<path transform="translate(1145,1448)" d="m0 0 10 1 20 5v2l-6 4-9 11-10 14-9 12-13 17-3 1 1-5 12-41 6-20z" fill="#070607"/>
<path transform="translate(893,1447)" d="m0 0 3 3 10 34 9 27v5l-5-5-9-12-11-14-14-18-7-8-4-3v-2z" fill="#070607"/>
<path transform="translate(697,953)" d="m0 0 16 1 7 1 1 1-2 32-1 6-23-1-1-5 2-33z" fill="#F2F8FD"/>
<path transform="translate(687,1105)" d="m0 0h1v5l20 1 3 1v13l-2 25-4 1-20-2v-11l2-27-3-1h3z" fill="#F3F9FD"/>
<path transform="translate(1621,445)" d="m0 0h6l7 4h1l-1 7-2 1 4 10 2 1-3 3h-18l-2 1-1-5-3-6 1-6 3-3h2l2-5z" fill="#DAEDFC"/>
<path transform="translate(1579,322)" d="m0 0h14l7 4 3 5v6l-5 1-31-2 3-1 1-6z" fill="#8B0C0B"/>
<path transform="translate(968,1626)" d="m0 0h94l23 1 4 3h-29l-92-1z" fill="#9CD0FA"/>
<path transform="translate(1555,363)" d="m0 0 9 2 10 5 22 4 10 1v1l-25 1-6 1 1 3h-13l-2-4 3-5 1-4-6 1-4 10-3-2-2-7v-4z" fill="#710B0A"/>
<path transform="translate(1618,376)" d="m0 0h17l9 3-2 2-4 1h-21l-41-1-1-3 2-1z" fill="#DFF0FC"/>
<path transform="translate(1578,320)" d="m0 0m-2 1 2 1v2l-6 5-2 6h-8l-6-2-12-1-1-5 6-4 6 1 3 5 5 2h3l7-8z" fill="#E2F2FC"/>
<path transform="translate(1338,1602)" d="m0 0h1l-1 9-7 23-9 25-5 12h-3l2-6 7-18 7-21 7-23z" fill="#B9DCFB"/>
<path transform="translate(1623,451)" d="m0 0 6 1 4 3-1 4 4 6v2l2 1-3 3-16-1-2-1v-2h10l-4-13z" fill="#070607"/>
<path transform="translate(1067,1627)" d="m0 0h18l4 3h-29l-92-1v-1z" fill="#76B9F9"/>
<path transform="translate(705,1614)" d="m0 0 3 4 15 42 1 3h-3l-9-24-7-21z" fill="#BBDEFB"/>
<path transform="translate(1541,355)" d="m0 0 4 4 4 15 1 6h5v1h-9l-3-7-2-13z" fill="#730B0A"/>
<path transform="translate(1659,363)" d="m0 0 5 1 2 3-1 11h-3l-3-4-2-6h-6v-2z" fill="#760B0B"/>
<path transform="translate(1360,448)" d="m0 0 1 2-7 24-5 2-1-4 8-18z" fill="#A3C2FE"/>
<path transform="translate(1555,363)" d="m0 0 9 2-1 3-4 1-4 10-3-2-2-7v-4z" fill="#731316"/>
<path transform="translate(1654,367)" d="m0 0 4 1 4 9 4 2v1h-9l-6-8v-4z" fill="#D0EAFB"/>
<path transform="translate(1539,355)" d="m0 0 2 1 4 22 2 2-3 1-5-1-1-19z" fill="#CDE9FB"/>
<path transform="translate(1561,470)" d="m0 0 3 1-8 4-16 7-2-1-1-1-4-1z" fill="#7EB3FC"/>
<path transform="translate(1364,1548)" d="m0 0 5 5 5 11 3 9v5l-3-3-10-25z" fill="#A8D6FA"/>
<path transform="translate(674,1547)" d="m0 0 1 3-10 27-1 2h-2l3-12 5-13z" fill="#BEE0FB"/>
<path transform="translate(1561,367)" d="m0 0 4 1-1 6-4 6h-6l4-11z" fill="#E2F2FC"/>
<path transform="translate(1676,356)" d="m0 0 2 2-1 21 2 1-5 1-2-4 2-8z" fill="#8DCDF8"/>
<path transform="translate(1614,453)" d="m0 0 2 2 2 11 2 1h-3v2l2 1-4 2-1-5-3-6 1-6z" fill="#BEDFFB"/>
<path transform="translate(1326,1642)" d="m0 0 1 4-10 25h-3l2-6 7-18z" fill="#B8DEFA"/>
<path transform="translate(1570,334)" d="m0 0h33v3l-5 1-31-2z" fill="#060A0D"/>
<path transform="translate(1637,442)" d="m0 0 4 2 1 5v11l-4 1-1-2h2z" fill="#028AE4"/>
<path transform="translate(1537,479)" d="m0 0 3 1-4 4-10 4-5-1 1-2 10-5z" fill="#C3D7FE"/>
<path transform="translate(705,1614)" d="m0 0 3 4 7 21h-3l-7-21z" fill="#83C5F8"/>
<path transform="translate(1547,339)" d="m0 0 5 5 4 9-4-2-4-5-2-1z" fill="#7F0C0B"/>
<path transform="translate(802,1396)" d="m0 0 2 1-9 15h-3l2-5z" fill="#A7D6FA"/>
<path transform="translate(1615,458)" d="m0 0h2l1 8 2 1h-3v2l2 1-4 2-1-5v-3z" fill="#1F89D3"/>
<path transform="translate(1338,1602)" d="m0 0h1l-1 9-2 7h-3l3-11z" fill="#80BEFA"/>
<path transform="translate(1667,340)" d="m0 0 4 2-1 4-7 2z" fill="#750B0A"/>
<path transform="translate(1639,450)" d="m0 0 2 1 1 9-4 1-1-2h2z" fill="#070607"/>
</svg>
